<svg xmlns="http://www.w3.org/2000/svg" xmlns:xlink="http://www.w3.org/1999/xlink" width="500" zoomAndPan="magnify" viewBox="0 0 375 374.999991" height="500" preserveAspectRatio="xMidYMid meet" version="1.2"><defs><clipPath id="6e784d148d"><path d="M 8 7.726562 L 369.125 7.726562 L 369.125 366.976562 L 8 366.976562 Z M 8 7.726562 "/></clipPath></defs><g id="3f99a00d04"><g clip-rule="nonzero" clip-path="url(#6e784d148d)"><path style=" stroke:none;fill-rule:nonzero;fill:#f68712;fill-opacity:1;" d="M 41.226562 187.480469 C 41.226562 101.675781 110.828125 32.113281 196.691406 32.113281 C 282.546875 32.113281 352.152344 101.675781 352.152344 187.480469 C 352.152344 273.285156 282.546875 342.851562 196.691406 342.851562 C 110.828125 342.851562 41.226562 273.285156 41.226562 187.480469 Z M 8.839844 187.480469 C 8.839844 286.910156 89.492188 367.519531 188.988281 367.519531 C 288.480469 367.519531 369.132812 286.910156 369.132812 187.480469 C 369.132812 88.046875 288.480469 7.441406 188.988281 7.441406 C 89.492188 7.441406 8.839844 88.046875 8.839844 187.480469 "/></g><path style=" stroke:none;fill-rule:nonzero;fill:#fbc108;fill-opacity:1;" d="M 214.90625 179.9375 L 285.644531 109.242188 C 292.605469 102.285156 304.238281 103.320312 309.742188 111.480469 C 319.695312 126.238281 326.832031 143.046875 330.382812 161.144531 C 332.289062 170.875 324.882812 179.9375 314.960938 179.9375 L 214.90625 179.9375 "/><path style=" stroke:none;fill-rule:nonzero;fill:#fbc108;fill-opacity:1;" d="M 214.90625 195.019531 L 314.960938 195.019531 C 324.882812 195.019531 332.289062 204.085938 330.382812 213.816406 C 326.832031 231.910156 319.695312 248.722656 309.742188 263.480469 C 304.238281 271.636719 292.605469 272.675781 285.644531 265.71875 L 214.90625 195.019531 "/><path style=" stroke:none;fill-rule:nonzero;fill:#fbc108;fill-opacity:1;" d="M 189.140625 69.277344 L 189.140625 169.273438 L 118.402344 98.578125 C 111.441406 91.621094 112.480469 79.996094 120.644531 74.496094 C 135.410156 64.546875 152.230469 57.414062 170.335938 53.867188 C 180.074219 51.960938 189.140625 59.363281 189.140625 69.277344 "/><path style=" stroke:none;fill-rule:nonzero;fill:#fbc108;fill-opacity:1;" d="M 204.234375 169.273438 L 204.234375 69.277344 C 204.234375 59.363281 213.300781 51.960938 223.035156 53.867188 C 241.144531 57.414062 257.96875 64.546875 272.734375 74.496094 C 280.898438 79.996094 281.9375 91.621094 274.972656 98.578125 L 204.234375 169.273438 "/><path style=" stroke:none;fill-rule:nonzero;fill:#fbc108;fill-opacity:1;" d="M 204.234375 205.6875 L 274.96875 276.382812 C 281.933594 283.339844 280.898438 294.964844 272.730469 300.464844 C 257.964844 310.414062 241.144531 317.542969 223.039062 321.09375 C 213.300781 323 204.234375 315.59375 204.234375 305.679688 L 204.234375 205.6875 "/><path style=" stroke:none;fill-rule:nonzero;fill:#fbc108;fill-opacity:1;" d="M 178.472656 195.019531 L 107.730469 265.71875 C 100.769531 272.675781 89.140625 271.636719 83.636719 263.480469 C 73.683594 248.722656 66.546875 231.910156 62.996094 213.816406 C 61.085938 204.085938 68.496094 195.019531 78.417969 195.019531 L 178.472656 195.019531 "/><path style=" stroke:none;fill-rule:nonzero;fill:#fbc108;fill-opacity:1;" d="M 178.46875 179.9375 L 78.417969 179.9375 C 68.496094 179.9375 61.085938 170.875 62.996094 161.144531 C 66.53125 143.125 73.625 126.375 83.515625 111.660156 C 89.054688 103.417969 100.710938 102.222656 107.734375 109.242188 L 178.46875 179.9375 "/><path style=" stroke:none;fill-rule:nonzero;fill:#fbc108;fill-opacity:1;" d="M 189.140625 205.6875 L 189.140625 305.679688 C 189.140625 315.59375 180.074219 323 170.335938 321.09375 C 152.230469 317.542969 135.410156 310.414062 120.644531 300.464844 C 112.480469 294.964844 111.441406 283.339844 118.40625 276.382812 L 189.140625 205.6875 "/></g></svg>